<svg width="338" height="238" viewBox="0 0 338 238" fill="none" xmlns="http://www.w3.org/2000/svg">
<g clip-path="url(#clip0_965_286)">
<rect width="338" height="238" fill="black"/>
<g filter="url(#filter0_f_965_286)">
<path d="M374.27 72.5L289.77 171.5L259.77 155L235.77 139L218.27 114.5L207.77 86V65L178.27 51L154.77 65V86L145.27 118L135.77 139L123.77 161L59.1272 167.5L16.6272 118L-1.22998 55.5L-15 72.5H-9.72998V253.5H374.27V72.5Z" fill="#0036AB"/>
</g>
<g filter="url(#filter1_f_965_286)">
<path d="M65.5 192.5L-31.1165 93.5H-32.2699H-34V274.5H357V93.5L272.5 192.5L190.5 107V86L161 72L137.5 86V107L116 118.5L101.5 149.75L65.5 192.5Z" fill="#2EC3FF"/>
</g>
<g filter="url(#filter2_f_965_286)">
<path d="M100.652 181.278L47 211H261L221.98 181.278L163.45 104L100.652 181.278Z" fill="#F0F0F0"/>
</g>
<g filter="url(#filter3_f_965_286)">
<path d="M107.922 203.077L-13.8553 216.561H-20V268H366V221.056L209.589 198.583C204.189 191.924 191.155 175.61 182.217 163.624C171.045 148.642 146.466 153.137 139.763 163.624C134.4 172.014 116.301 193.422 107.922 203.077Z" fill="#FF6E6E"/>
</g>
<g filter="url(#filter4_f_965_286)">
<path d="M144.635 216.089L121.506 204.696L117 249H196L162.357 199C174.5 238.5 151.002 208.841 144.635 216.089Z" fill="#900000"/>
</g>
<g filter="url(#filter5_f_965_286)">
<path d="M283.692 231.861L271.395 226.62L269 247H311L293.114 224L283.692 231.861Z" fill="#900000"/>
</g>
</g>
<defs>
<filter id="filter0_f_965_286" x="-113.3" y="-47.3" width="585.87" height="399.1" filterUnits="userSpaceOnUse" color-interpolation-filters="sRGB">
<feFlood flood-opacity="0" result="BackgroundImageFix"/>
<feBlend mode="normal" in="SourceGraphic" in2="BackgroundImageFix" result="shape"/>
<feGaussianBlur stdDeviation="49.15" result="effect1_foregroundBlur_965_286"/>
</filter>
<filter id="filter1_f_965_286" x="-121.9" y="-15.9" width="566.8" height="378.3" filterUnits="userSpaceOnUse" color-interpolation-filters="sRGB">
<feFlood flood-opacity="0" result="BackgroundImageFix"/>
<feBlend mode="normal" in="SourceGraphic" in2="BackgroundImageFix" result="shape"/>
<feGaussianBlur stdDeviation="43.95" result="effect1_foregroundBlur_965_286"/>
</filter>
<filter id="filter2_f_965_286" x="-2" y="55" width="312" height="205" filterUnits="userSpaceOnUse" color-interpolation-filters="sRGB">
<feFlood flood-opacity="0" result="BackgroundImageFix"/>
<feBlend mode="normal" in="SourceGraphic" in2="BackgroundImageFix" result="shape"/>
<feGaussianBlur stdDeviation="24.5" result="effect1_foregroundBlur_965_286"/>
</filter>
<filter id="filter3_f_965_286" x="-67" y="107" width="480" height="208" filterUnits="userSpaceOnUse" color-interpolation-filters="sRGB">
<feFlood flood-opacity="0" result="BackgroundImageFix"/>
<feBlend mode="normal" in="SourceGraphic" in2="BackgroundImageFix" result="shape"/>
<feGaussianBlur stdDeviation="23.5" result="effect1_foregroundBlur_965_286"/>
</filter>
<filter id="filter4_f_965_286" x="60.5" y="142.5" width="192" height="163" filterUnits="userSpaceOnUse" color-interpolation-filters="sRGB">
<feFlood flood-opacity="0" result="BackgroundImageFix"/>
<feBlend mode="normal" in="SourceGraphic" in2="BackgroundImageFix" result="shape"/>
<feGaussianBlur stdDeviation="28.25" result="effect1_foregroundBlur_965_286"/>
</filter>
<filter id="filter5_f_965_286" x="212.5" y="167.5" width="155" height="136" filterUnits="userSpaceOnUse" color-interpolation-filters="sRGB">
<feFlood flood-opacity="0" result="BackgroundImageFix"/>
<feBlend mode="normal" in="SourceGraphic" in2="BackgroundImageFix" result="shape"/>
<feGaussianBlur stdDeviation="28.25" result="effect1_foregroundBlur_965_286"/>
</filter>
<clipPath id="clip0_965_286">
<rect width="338" height="238" fill="white"/>
</clipPath>
</defs>
</svg>
